<svg xmlns="http://www.w3.org/2000/svg" width="500" height="500" style="width:100%;height:100%;transform:translate3d(0,0,0)" viewBox="0 0 500 500"><defs><clipPath id="a"><path d="M0 0h500v500H0z"/></clipPath><clipPath id="c"><path d="M0 0h500v500H0z"/></clipPath><clipPath id="b"><path d="M0 0h500v500H0z"/></clipPath></defs><g clip-path="url(#a)"><g clip-path="url(#b)" style="display:block"><g class="primary design" style="display:none"><path/><path fill="none"/></g><g class="primary design" style="display:none"><path/><path fill="none"/></g><path fill="none" class="primary design" style="display:none"/><path class="primary design" style="display:none"/><g class="primary design" style="display:none"><path/><path fill="none"/><path fill="none"/></g><path fill="#ED6C66" d="M0-4c-2.206 0-4 1.794-4 4s1.794 4 4 4 4-1.794 4-4-1.794-4-4-4z" class="primary design" style="display:block" transform="translate(359.355 354.153) scale(20.83)"/><path fill="#ED6C66" d="M-2 3.75h4c.965 0 1.75-.785 1.75-1.75v-4c0-.965-.785-1.75-1.75-1.75h-4c-.965 0-1.75.785-1.75 1.75v4c0 .965.785 1.75 1.75 1.75z" class="primary design" style="display:block" transform="translate(359.355 140.635) scale(20.83)"/><path fill="#ED6C66" d="M.649-3.389c-.268-.464-1.03-.464-1.298 0l-3.464 6a.75.75 0 0 0 .649 1.125h6.928a.75.75 0 0 0 .649-1.125l-3.464-6z" class="primary design" style="display:block" transform="translate(151.055 140.928) scale(20.83)"/><path fill="#ED6C66" d="M3.582-3.582a.999.999 0 0 0-1.414 0L0-1.414l-2.168-2.168a.999.999 0 1 0-1.414 1.414L-1.414 0l-2.168 2.168a.999.999 0 1 0 1.414 1.414L0 1.414l2.168 2.168a.997.997 0 0 0 1.414 0 .999.999 0 0 0 0-1.414L1.414 0l2.168-2.168a.999.999 0 0 0 0-1.414z" class="primary design" style="display:block" transform="translate(151.055 356.757) scale(20.83)"/><path class="primary design" style="display:none"/><path class="primary design" style="display:none"/><path class="primary design" style="display:none"/><path class="primary design" style="display:none"/></g><g clip-path="url(#c)" opacity="0" style="display:block"><g class="primary design" style="display:none"><path/><path fill="none"/></g><g fill="none" class="primary design" style="display:none"><path/><path/></g><g class="primary design" style="display:none"><path/><path fill="none"/></g><g class="primary design" style="display:none"><path/><path fill="none"/></g><path class="primary design" style="display:none"/><path class="primary design" style="display:none"/><path class="primary design" style="display:none"/><path class="primary design" style="display:none"/></g><g class="com" style="display:none"><path/><path/><path/><path/><path/><path/><path/><path/><path/><path/><path/><path/></g></g></svg>