<svg xmlns="http://www.w3.org/2000/svg" width="500" height="500" style="width:100%;height:100%;transform:translate3d(0,0,0)" viewBox="0 0 500 500"><defs><clipPath id="c"><path d="M0 0h500v500H0z"/></clipPath><clipPath id="g"><path d="M0 0h500v500H0z"/></clipPath><clipPath id="f"><path d="M0 0h500v500H0z"/></clipPath><clipPath id="d"><path d="M0 0h500v500H0z"/></clipPath><filter id="a" width="100%" height="100%" x="0%" y="0%" filterUnits="objectBoundingBox"><feComponentTransfer in="SourceGraphic"><feFuncA tableValues="1.0 0.0" type="table"/></feComponentTransfer></filter><path id="b" fill-opacity="0" stroke-linecap="round" stroke-linejoin="round" class="primary design" style="display:none"/><mask id="e" mask-type="alpha"><g filter="url(#a)"><path fill="#fff" d="M0 0h500v500H0z" opacity="0"/><use xmlns:a0="http://www.w3.org/1999/xlink" a0:href="#b"/></g></mask></defs><g clip-path="url(#c)"><g clip-path="url(#d)" opacity="0" style="display:block"><g class="primary design" opacity="1" style="display:block"><path fill="#ED6C66" d="m302.903 161.056-126.646 63.323m232.463-80.404c0 28.537-23.122 51.659-51.659 51.659s-51.658-23.122-51.658-51.659 23.121-51.658 51.658-51.658c28.537 0 51.659 23.121 51.659 51.658z"/><path fill="none" stroke="#ED6C66" stroke-linecap="round" stroke-linejoin="round" stroke-width="41.66" d="m302.903 161.056-126.646 63.323" opacity="1"/><path fill="none" stroke="#ED6C66" stroke-linecap="round" stroke-linejoin="round" stroke-width="31.245" d="M408.74 143.934c0 28.558-23.142 51.679-51.7 51.679-28.557 0-51.7-23.121-51.7-51.68 0-28.557 23.143-51.7 51.7-51.7 28.558 0 51.7 23.143 51.7 51.7z" opacity="1"/></g><g class="primary design" opacity="1" style="display:block"><path fill="#ED6C66" d="m303.104 338.54-126.79-63.036m212.564 134.288c-25.286 19.055-61.167 14.012-80.222-11.274-19.054-25.286-14.011-61.167 11.275-80.221 25.286-19.055 61.167-14.012 80.221 11.274 19.055 25.286 14.012 61.167-11.274 80.221z"/><path fill="none" stroke="#ED6C66" stroke-linecap="round" stroke-linejoin="round" stroke-width="41.66" d="m303.104 338.54-126.79-63.036" opacity="1"/><path fill="none" stroke="#ED6C66" stroke-linecap="round" stroke-linejoin="round" stroke-width="31.245" d="M388.878 409.792c-25.27 19.042-61.18 13.995-80.222-11.274-19.041-25.27-13.995-61.18 11.275-80.221 25.27-19.042 61.18-13.995 80.221 11.274 19.042 25.27 13.995 61.18-11.274 80.221z" opacity="1"/></g><g class="primary design" mask="url(#e)" style="display:block"><path fill="#ED6C66" d="M180.755 250c0 28.579-23.163 51.742-51.741 51.742-28.58 0-51.742-23.163-51.742-51.742 0-28.579 23.163-51.742 51.742-51.742 28.578 0 51.741 23.163 51.741 51.742z"/><path fill="none" stroke="#ED6C66" stroke-linecap="round" stroke-linejoin="round" stroke-width="31.245" d="M180.755 250c0 28.579-23.163 51.742-51.741 51.742-28.58 0-51.742-23.163-51.742-51.742 0-28.579 23.163-51.742 51.742-51.742 28.578 0 51.741 23.163 51.741 51.742z"/></g><path style="display:none"/></g><g clip-path="url(#f)" style="display:block"><g class="primary design" style="display:none"><path/><path fill="none"/><path fill="none"/></g><g class="primary design" style="display:none"><path/><path fill="none"/><path fill="none"/></g><g class="primary design" style="display:none"><path/><path fill="none"/><path fill="none"/></g><g class="primary design" style="display:none"><path/><path fill="none"/><path fill="none"/></g><g class="primary design" style="display:none"><path/><path fill="none"/></g><path fill="#ED6C66" d="M5.29 2.561c-.736 0-1.408.255-1.953.669L-2.101.539c.034-.188.058-.378.058-.575 0-.192-.025-.378-.057-.561l5.353-2.705a3.22 3.22 0 0 0 2.04.741 3.254 3.254 0 0 0 3.25-3.25 3.254 3.254 0 0 0-3.25-3.25 3.254 3.254 0 0 0-3.25 3.25c0 .285.049.557.118.82l-5.196 2.625a3.231 3.231 0 0 0-2.258-.92 3.254 3.254 0 0 0-3.25 3.25 3.254 3.254 0 0 0 3.25 3.25c.872 0 1.662-.35 2.246-.911l5.235 2.59a3.207 3.207 0 0 0-.148.918 3.254 3.254 0 0 0 3.25 3.25 3.254 3.254 0 0 0 3.25-3.25 3.254 3.254 0 0 0-3.25-3.25z" style="display:block" transform="translate(239.217 250.754) scale(20.83)"/><path style="display:none"/></g><g clip-path="url(#g)" opacity="0" style="display:block"><g class="primary design" style="display:none"><path fill="none"/><path fill="none"/><path/></g><g class="primary design" style="display:none"><path fill="none"/><path/><path fill="none"/></g><g class="primary design" style="display:none"><path/><path fill="none"/></g><path style="display:none"/></g><path style="display:none"/></g></svg>