<svg xmlns="http://www.w3.org/2000/svg" width="500" height="500" style="width:100%;height:100%;transform:translate3d(0,0,0)" viewBox="0 0 500 500"><defs><clipPath id="c"><path d="M0 0h500v500H0z"/></clipPath><clipPath id="e"><path d="M0 0h500v500H0z"/></clipPath><clipPath id="d"><path d="M0 0h500v500H0z"/></clipPath><filter id="a" width="100%" height="100%" x="0%" y="0%" filterUnits="objectBoundingBox"><feComponentTransfer in="SourceGraphic"><feFuncA tableValues="1.0 0.0" type="table"/></feComponentTransfer></filter><path id="b" fill-opacity="0" stroke-linecap="round" stroke-miterlimit="10" class="primary design" style="display:none"/><mask id="f" mask-type="alpha"><g filter="url(#a)"><path fill="#fff" d="M0 0h500v500H0z" opacity="0"/><use xmlns:a0="http://www.w3.org/1999/xlink" a0:href="#b"/></g></mask></defs><g clip-path="url(#c)"><g clip-path="url(#d)" style="display:block"><path fill="#ED6C66" d="M197.546.208-.162-197.5c-8.542-8.542-20.834-12.291-32.709-10.208l-137.5 24.791a15.036 15.036 0 0 0-12.5 12.5l-24.791 137.5c-2.292 11.875 1.666 24.167 10.208 32.709L.254 197.5c7.083 7.083 16.25 10.833 26.25 10.833 9.792 0 19.167-3.75 26.25-10.833L197.546 52.708c7.083-7.083 10.833-16.458 10.833-26.25 0-10-3.75-19.167-10.833-26.25zM-64.954-65c-4.792 5-11.458 7.708-18.333 7.708-1.667 0-3.333-.208-5-.416-1.667-.417-3.333-.834-5-1.667-1.458-.625-3.125-1.459-4.375-2.292-1.458-1.042-2.917-2.083-4.167-3.333-4.792-4.792-7.5-11.458-7.5-18.333 0-1.667.209-3.333.417-5 .417-1.667.833-3.333 1.666-5 .625-1.458 1.459-3.125 2.292-4.375 1.042-1.458 2.083-2.917 3.125-4.167 1.25-1.042 2.709-2.083 4.167-3.125 1.25-.833 2.917-1.667 4.375-2.292 1.667-.833 3.333-1.249 5-1.666 8.333-1.667 17.291 1.041 23.333 7.083 5 5 7.708 11.667 7.708 18.542 0 6.875-2.708 13.541-7.708 18.333z" class="primary design" style="display:block" transform="translate(250.001 250.001)"/></g><g clip-path="url(#e)" opacity="0" style="display:block"><g class="primary design" mask="url(#f)" style="display:none"><path/><path fill="none"/></g><path class="primary design" style="display:none"/></g><g class="com" style="display:none"><path/><path/><path/><path/><path/><path/><path/><path/><path/><path/><path/><path/></g></g></svg>